<svg width="26" height="20" fill="none" xmlns="http://www.w3.org/2000/svg"><path fill-rule="evenodd" clip-rule="evenodd" d="M16.332 14.815c-.528-.674-1.387-1.65-2.122-1.742-.447-.057-.96.318-1.467.672-.1.05-.863.51-.955.538-.49.14-1.533.182-2.165-.4-.607-.563-1.568-1.604-2.344-2.558-.741-.982-1.518-2.164-1.916-2.889-.415-.75-.116-1.745.14-2.182.048-.079.616-.67.743-.808l.019.023c.47-.4.963-.806 1.019-1.246.091-.733-.649-1.8-1.177-2.474-.53-.676-1.348-1.86-2.464-1.693a3.04 3.04 0 0 0-1.139.425l-.01-.01-.059.045-.03.017.003.005c-.205.16-.79.602-.857.662C.827 1.851-.263 3.385.58 6.144c.625 2.05 1.958 4.457 3.774 6.892l-.01.01c.089.117.18.223.273.337l.26.346.013-.009c1.927 2.349 3.948 4.226 5.792 5.334 2.483 1.49 4.248.819 5.064.285.076-.051.66-.51.857-.661l.005.005c.007-.008.012-.018.022-.025l.053-.042-.007-.01c.299-.292.538-.605.704-.998.434-1.037-.519-2.117-1.048-2.793Z" fill="#EB242A"/><path d="M13 7.037a.757.757 0 0 1 .652-.75l.102-.006h8.671l-2.987-2.99a.757.757 0 0 1-.075-.984l.073-.085a.753.753 0 0 1 .983-.074l.084.073 4.275 4.277.063.071.06.093.02.036.039.092.03.12.008.071.002.06c0 .052-.006.102-.016.152l-.023.083a.742.742 0 0 1-.147.259l-4.31 4.325a.754.754 0 0 1-1.285-.45.758.758 0 0 1 .144-.534l.074-.085 2.984-2.997h-8.667A.754.754 0 0 1 13 7.037Z" fill="#EB242A" stroke="#EB242A" stroke-width=".75"/></svg>